<svg width="500" height="500" viewBox="0 0 500 500" fill="none" xmlns="http://www.w3.org/2000/svg">
<rect width="500" height="500" rx="50" fill="#E9E9E9"/>
<path d="M146.936 129.626C138.477 130.491 131.018 132.021 122.693 134.548C106.776 139.404 106.309 139.869 106.309 152.307V160.821H94.8542C82.4665 160.821 81.5341 161.087 79.7359 164.612C79.2031 165.676 79.0033 193.611 79.0033 265.578C79.0033 374.924 78.7369 367.807 82.9993 370.002C84.7309 370.867 103.712 371 249.5 371C395.288 371 414.269 370.867 416.001 370.002C420.263 367.807 419.997 374.924 419.997 265.578C419.997 173.857 419.93 165.876 418.865 164.146C417.133 161.153 415.468 160.821 403.68 160.821H392.691V152.307C392.691 140.069 392.624 140.002 378.372 135.213C348.601 125.237 312.437 127.631 279.803 141.865C271.278 145.589 260.422 151.509 253.363 156.231L249.567 158.825L243.04 154.635C213.336 135.546 178.371 126.434 146.936 129.626ZM177.505 144.525C197.752 147.385 217.332 154.901 236.047 166.94L242.174 170.931V260.323C242.174 309.476 242.107 349.716 241.974 349.716C241.841 349.716 238.378 347.787 234.315 345.459C217.465 335.881 199.35 329.696 178.571 326.37C171.644 325.239 148.201 325.239 141.275 326.37C136.812 327.035 127.688 329.164 121.827 330.827L120.295 331.226V240.835V150.378L123.159 149.314C127.888 147.518 135.747 145.523 142.007 144.592C149.999 143.328 168.847 143.328 177.505 144.525ZM356.393 144.525C363.053 145.523 373.976 148.25 377.106 149.647L378.705 150.378V240.769C378.705 326.57 378.638 331.159 377.572 330.827C362.787 326.171 342.807 324.175 327.089 325.705C305.045 327.833 281.868 335.349 263.286 346.257C260.023 348.186 257.226 349.716 257.092 349.716C256.959 349.716 256.826 309.476 256.826 260.323V170.931L263.353 166.74C280.602 155.566 301.848 147.319 320.895 144.592C329.554 143.328 348.202 143.328 356.393 144.525ZM106.443 259.658L106.642 344.528L108.907 346.523C111.704 349.051 113.902 348.851 123.159 345.459C131.351 342.466 140.342 340.604 151.198 339.673C171.578 337.943 197.086 342.998 217.199 352.709L224.525 356.234L158.79 356.301L92.9893 356.367V265.578V174.788H99.6494H106.309L106.443 259.658ZM406.011 265.578V356.367H340.276L274.475 356.301L278.804 354.106C285.997 350.381 297.985 345.925 306.11 343.796C318.431 340.67 327.089 339.54 339.743 339.606C353.53 339.606 363.386 341.136 374.642 345.127C385.365 348.851 387.296 349.051 390.093 346.523L392.358 344.528L392.557 259.658L392.691 174.788H399.351H406.011V265.578Z" fill="#2D2D2D"/>
</svg>
